<?xml version="1.0" encoding="utf-8"?>
<!-- Generator: Adobe Illustrator 25.2.1, SVG Export Plug-In . SVG Version: 6.00 Build 0)  -->
<svg version="1.1" id="Layer_1" xmlns="http://www.w3.org/2000/svg" xmlns:xlink="http://www.w3.org/1999/xlink" x="0px" y="0px"
	 viewBox="0 0 1800 1800" style="enable-background:new 0 0 1800 1800;" xml:space="preserve">
<style type="text/css">
	.st0{fill:#FFFFFF;}
	.st1{fill:#705DA7;}
	.st2{fill:#54B3DC;}
	.st3{fill:#76C9BE;}
	.st4{fill:#5E499D;}
</style>
<path class="st0" d="M1672,1800H119.8c-22.6,0-41-18.4-41-41V41c0-22.5,18.4-41,41-41H1672c22.5,0,41,18.5,41,41v1718
	C1713,1781.6,1694.6,1800,1672,1800z"/>
<g>
	<g>
		<path class="st1" d="M1305.7,778.4c-90.3-136.8-254.9-201.8-435.6-208.9v-0.1h-99.7c-3.5,0-6.4,2.4-6.4,5.5v62.4
			c0,3,2.9,5.5,6.4,5.5h99.7v-0.3c5.1,0.8,11.9,1.3,21.1,1.9c88.7,5.8,191.3,31.9,257.8,83.5c75.5,58.6,121.3,130.8,131.3,217
			c10.3,88.8-18.5,169.8-83.7,240.3c-57.4,62.1-133.3,100.7-226,117.5c-30.5,5.5-61.5,7.3-92.5,7.5c-145.8,0.7-291.6,0.5-437.3,0.7
			c-6,0-12.1,0.2-18.1,0.1c-10.8-0.1-15.8,3.6-15.3,13.6c0.7,13.6,0.1,27.2-0.1,40.8c-0.3,16.8,0.1,17.3,20,17.4
			c81.9,0.1,163.8,0,245.7,0c0-0.1,0-0.1,0-0.2c73.6,0,147.3,0.7,220.9-0.2c86.7-1,168.3-18.5,242.6-57.9
			c144.2-76.4,219.3-188,229.1-331.6C1370.8,916.6,1349.6,844.9,1305.7,778.4z"/>
		<path class="st2" d="M407.4,1265.2c-0.4,18.8-0.5,18.9,20.9,18.9c82.5,0,164.9,0,247.4,0c0-0.1,0-0.2,0-0.2
			c77.5,0,155,0.3,232.5-0.1c55-0.2,106.6-13.1,154.2-35.7c92.7-43.9,151.6-111.1,177.7-198.3c19-63.5,14.4-126.4-17-186.9
			c-37.1-71.4-95.6-126.3-176.5-162.9c-47.9-21.7-124.1-30.2-177.9-32.6c-0.2,0-0.3,0-0.5,0l0,0h-99.7c-3.5,0-6.4,2.4-6.4,5.5v61.8
			c0,3,2.9,5.5,6.4,5.5h96.4c0.7,0.1,1.3,0.2,2.1,0.2c15,0,53.4,3.8,68,5.3c123.8,13,204.7,94,227,188.7
			c12.5,52.9,1.6,104.4-30.5,151.8c-52.8,78-133.5,121.1-237.1,125.1c-149.9,5.7-300.1,1.3-450.2,1.9c-7.1,0-14.3,0.4-21.4,0
			c-12.4-0.7-16.4,4.3-15.8,14.3C407.8,1239.9,407.6,1252.6,407.4,1265.2z"/>
		<path class="st3" d="M425.1,1187.4c151.1-0.4,302.2,0,453.3-1c42.3-0.3,83-6.9,121.9-24.6c120-54.6,176-178.8,103.7-286.4
			c-46-68.4-140.4-104.7-233.5-108.2c-0.8,0-1.6,0-2.3,0v-0.1h-99.7c-3.5,0-6.4,2.4-6.4,5.5v59.6c0,3,2.9,5.5,6.4,5.5
			c0,0,79.1-0.5,83.9-0.4c3.4,0.1,8.3,0.1,16,0.7c2.3,0.4,4.9,0.7,8.1,1.1c58.7,7.8,130.9,31.1,157,77.7
			c50.1,89.5-23.9,192.4-139.9,197.1c-116.9,4.7-234-1.1-350.9,3.6c-37.8,1.5-75.7,0.3-113.5-2c-17.2-1-23,1.8-22.2,14.2
			c0.9,14,0.9,28.1,0,42.1C406.3,1183.7,411.6,1187.5,425.1,1187.4z"/>
	</g>
	<g>
		<path class="st1" d="M1362.9,482.2c-7.6-59.6-28.1-115.6-65-166.4c-76.5-105.4-188.4-167.6-329.9-192.2
			c-120.3-20.9-230.1,3.8-331.7,58.7c-82.6,44.6-144.4,106-186.4,181.2c-22.7,40.7-41.9,82.6-41.9,128.8
			c-0.2,156.5-0.3,423.3-0.8,583.7h88c0-79.6,0-264.6,0-339.8c0.1,0,0.3,0,0.4,0c0-63.8,0.3-127.5-0.1-191.3
			c-0.3-49.7,7.3-97.9,31-143.9c23.2-44.9,51.4-87.1,94.1-120.6c35.6-27.9,78.4-46.2,122.9-61.4c49.8-17.1,101.7-27.6,155.7-26.2
			c86.9,2.3,164,28.2,231.7,74.2c70.1,47.6,117.8,108.2,139.2,182.6c20.2,70.5,9.5,139.5-18.7,207.1c-2.7,6.5-5.5,12.2,1.8,17.9
			c17.2,13.3,31.4,28.8,44.7,44.9c6.9,8.3,11.7,6.7,16.4-1.3c16.2-27.7,29.4-56.4,38.1-86.6C1366.5,582.3,1369.3,532.6,1362.9,482.2
			z"/>
		<path class="st2" d="M608.8,742.8c0-71.7,0.4-143.4-0.2-215.2c-0.4-43.6,16.3-83,40.7-119.9c61.2-92.7,204.1-136.1,322.8-106.2
			c115.6,29.2,182.5,114.3,190.7,211.7c2.2,26.5-5.4,52.1-7.9,78.2c-0.9,9.3,1,16.1,11.3,21.2c14.8,7.2,29,15.2,41.9,24.8
			c7.9,5.9,15.2,4.5,19.7-4c2-3.8,3.8-7.8,5.4-11.8c24.2-63,23.4-126,1.4-189.3C1194,315.4,1079.4,236,940.1,219.8
			c-78.5-9.2-154.8,1-224.1,35.7c-122.7,61.6-187.8,154-191.7,275.2c-3,93.2-0.6,186.6-0.6,279.8c0,50.5-0.1,207.1,0,265.4h85
			C608.9,998.7,608.8,815.8,608.8,742.8z"/>
		<path class="st3" d="M725.4,538.1c-0.4-40.6,17.1-73,47.8-101.2c81.3-74.6,223-48.8,264.3,47c10,23.1,10.3,46.7,12.3,70.5
			c0.3,3.8-1.1,7.7,4,9.6c24,8.6,47.9,17.3,72.2,25.3c16.3-48,13.7-95.1-9.2-140c-36.4-71.3-100.1-114.9-190-128.8
			c-59.6-9.2-116.5,0.8-167.8,27.6c-75.7,39.5-116.9,98.3-119.6,173.8c-2.6,73.1-0.6,146.2-0.6,219.4c0,73.6,0,255.6,0,334.7H726
			C726,933.1,726.9,679.2,725.4,538.1z"/>
	</g>
	<path class="st1" d="M959.2,167.6H827.3V61.8c0-0.5,0.4-0.9,0.9-0.9h130.1c0.5,0,0.9,0.4,0.9,0.9L959.2,167.6L959.2,167.6z"/>
	<path class="st1" d="M958.3,1424.8H828.1c-0.5,0-0.9-0.4-0.9-0.9V1318h131.9v105.9C959.2,1424.4,958.8,1424.8,958.3,1424.8z"/>
</g>
<g>
	<path class="st4" d="M1092.3,1519.5c-4,0-6.2,1.6-8.3,4.8c-7.1,10.6-14.3,21.2-21.4,31.7c-6.6,9.8-20.9,30.1-27.9,39.9
		c-1.9,2.7-6,2.7-7.9-0.1c-10.2-14.9-37.7-55-48.9-71.6c-2.3-3.5-4.6-4.7-8.3-4.7c-28,0.1-56,0.1-84,0.1c-6.1,0-5.8-0.4-5.8,6.3
		c0,32.9,0,164.2,0,196.9c0,1.5,0,3,0,4.5c-0.1,2.3,0.7,3.6,2.9,3.4c0.8-0.1,1.7,0,2.5,0c22.3,0,44.5,0,66.8,0c0.8,0,1.7,0.1,2.5,0
		c3-0.3,4.1-1.6,4.3-5c0.1-1.3,0-2.6,0-3.9c0-18.4,0.3-67,0.4-85.3c0-2.3,2.9-3.2,4.2-1.4c4.3,5.8,10.7,14.7,14.2,19.8
		c4,5.9,12,17.5,16.6,24.1c2.1,3,5.5,4.8,9.1,4.8c12.1,0,40.2,0,55.3,0c3.5,0,7.9-2.3,9.8-5.3c5.5-8.7,11.8-16.9,17.5-25.4
		c3.2-4.8,9.1-13.2,13.1-18.9c1.3-1.8,4.2-0.9,4.2,1.3c0.2,20.9,0.8,80.9,0.9,91c0,2.3,1.9,4.2,4.3,4.2l66.4-0.1
		c2.4,0,4.3-1.9,4.3-4.3l0.9-202.7c0-2.4-1.9-4.3-4.3-4.3C1161.5,1519.6,1115.9,1519.8,1092.3,1519.5z"/>
	<path class="st4" d="M1500,1727.5c-0.6-0.9-1.4-1.7-2.1-2.4c-3.6-3.7-7.2-7.2-10.7-10.9c-7.6-8.2-66.5-71.1-78.7-84.3
		c-2.5-2.7-2.5-6.7,0-9.4c6.7-7.4,76.6-83.1,89.1-95.6c1.2-1.2,3.4-2.3,2.5-4.3c-0.8-1.7-3.1-0.8-4.7-0.8c-24.3,0-48.6,0-72.9,0
		c-7.1,0-14.2,0-21.3,0c-1.9,0-3.6,0.3-5.1,1.9c-5.1,5.4-10.3,10.7-15.3,16.1c-8.3,8.9-23.5,25-31.4,33.4c-2.7,2.9-7.3,2.9-10.1,0
		c-7.2-7.5-39.4-41.9-45.5-48.4c-2.3-2.4-4.3-3-7.1-3c-15.7,0-31.4,0-47.1,0c-15.2,0-30.4,0-45.6,0c-1,0-2-0.1-3,0
		c-0.9,0.1-2.2-0.4-2.7,0.8c-0.3,0.9,0.7,1.6,1.3,2.2c0.5,0.6,0.9,1.1,1.4,1.6c10.8,11.5,76.1,82.9,87.9,96.1c2.4,2.7,2.4,6.7,0,9.3
		c-13.2,14.6-80,87.4-89.6,97.4c-0.6,0.6-1.4,1.2-1.1,2.3c0.3,1,1.2,1.3,2.1,1.3c1.2,0.1,2.4,0.1,3.5,0.1c6.8,0,13.5,0,20.3,0
		c23.6,0,47.3,0,70.9,0c2.9,0,5.6-0.3,7.9-2.7c7.2-7.7,34.7-36.9,46.2-49.1c2.8-2.9,7.4-2.9,10.2,0c11,11.8,36.9,39.2,46.3,48.5
		c2.3,2.3,4.5,3.4,7.6,3.4c30.7-0.1,61.4-0.1,92.1-0.1c1.2,0,2.4,0.1,3.5-0.1C1500.6,1730.5,1501,1729.2,1500,1727.5z"/>
	<path class="st4" d="M685.8,1592.6c7.3-2.9,14.7-4.1,22.2-4.1c47.4-0.1,94.8,0,142.2,0c1.5,0,3,0,4.6,0c1.8,0,2.8-1.1,2.9-3.1
		c0.1-1.3,0.1-2.6,0.1-3.9c0-18.3,0-36.7,0-55c0-6.9,0.5-6.7-6-6.7c-27.2,0-54.3,0-81.5,0l0,0c-23.6,0-47.2-0.1-70.9,0
		c-6.4,0-12.7,0-19.1,1c-7,1.1-13.9,2.4-20.8,4.2c-12.3,3.3-23.9,8.4-34.7,16.1c-9.3,6.7-17.5,14.5-24,24.4
		c-11,16.8-15.9,36-16.4,56.6c-0.3,11.6,1.1,22.9,3.7,34.2c3.4,14.9,9.9,27.7,19.2,38.8c10.4,12.4,23.5,20.4,37.9,25.9
		c8.9,3.5,18.1,5.3,27.4,7.1c10,1.9,20,2.7,30.1,2.7c49.3,0.3,98.5,0.1,147.8,0.1c1.3,0,2.7,0.1,4,0c2.6-0.2,3.1-0.9,3.3-3.8
		c0.1-1.3,0-2.6,0-3.9c0-18,0-35.9,0-53.9c0-8,0-8-7.2-8c-48.8,0-97.5,0-146.3,0c-6.1,0-12.1-1.3-17.8-3.6
		c-8.6-3.4-15.2-9.5-18.3-19.4c-1.8-5.5-2.2-11.3-1.8-17.1C667.4,1607.4,674.1,1597.2,685.8,1592.6z"/>
</g>
<path class="st4" d="M573.6,1662c-2.8-11.9-9.8-20.6-19.2-26.9c-3-2-7.8-4.3-11.9-6.1c-3-1.3-3.3-5.5-0.4-7.2c3.3-1.9,7-4.2,9.4-5.8
	c4.5-2.9,9-5.9,12.5-10.3c5.9-7.2,10-15.4,11.1-25.2c1.1-9.8,0.2-19.5-4-28.3s-10.8-15.2-18.7-19.8c-6.9-4-14.1-7-21.7-8.8
	c-10-2.4-20.1-4.1-30.4-4c-31.9,0.1-144.1-0.5-196.4-0.5c-0.1,0-0.1,0-0.2,0c-5.1,0-9.3,4.3-9.4,9.4c0,0.3,0,0.7,0,1.1
	c0,83,0.5,167.5,0.6,192.8c0,4.2,3.4,7.6,7.7,7.7c35.9,0.2,187.1,1.2,202.7,0c9.4-0.7,18.7-1.7,28-3.7c9.8-2.2,19-6.3,27.2-12.7
	c3-2.4,5.6-5.3,7.7-8.8C576.6,1691.6,577.1,1677,573.6,1662z M487,1661c-0.4,0-3.5,0.3-4.7,0.3c-17-0.2-34-0.1-51.1-0.1l0,0
	c-17.2,0-34.4,0-51.6,0c-1.2,0-2.4,0-3.5,0c-1.4,0-2.2-1.2-2.2-3.9c0-10.1,0-20.2,0-30.3c0-0.1,0-0.1,0-0.2v-9.2c0-8.5,0-17,0-25.5
	c0-2.3,0.6-3.6,2.1-3.6c1.2,0,2.4-0.1,3.5-0.1c33.5,0,67.1,0.1,100.6-0.1c1.3,0,5.8,0,6.8,0c7.8,0,14.2,6.4,14.2,14.2
	c0,3.4-1.2,6.5-3.2,8.9c-0.3,0.4-0.6,0.7-0.9,1.1c0,0,0,0-0.1,0.1c-0.5,0.5-1.1,1-1.7,1.4c-2,1.5-4.5,2.4-7.2,2.6
	c-2.9,0.6-8.8,1-9.3,1c-3.2,0-5.7,2.6-5.7,5.7c0,3.2,2.6,5.7,5.7,5.7c0.8,0,7.9,0.6,8.2,0.6c8.6,0,15.6,7,15.6,15.6
	C502.6,1654,495.6,1661,487,1661z"/>
</svg>
